<svg width="392" height="139" viewBox="0 0 392 139" fill="none" xmlns="http://www.w3.org/2000/svg">
<path d="M17.7216 107C16.8682 107 16.1216 106.707 15.4816 106.12C14.8949 105.533 14.6016 104.787 14.6016 103.88V47.64C14.6016 46.7867 14.8949 46.0667 15.4816 45.48C16.1216 44.84 16.8682 44.52 17.7216 44.52C18.5749 44.52 19.2949 44.84 19.8816 45.48C20.5216 46.0667 20.8416 46.7867 20.8416 47.64V101.08H52.1216C52.9749 101.08 53.6949 101.373 54.2816 101.96C54.9216 102.493 55.2416 103.187 55.2416 104.04C55.2416 104.893 54.9216 105.613 54.2816 106.2C53.6949 106.733 52.9749 107 52.1216 107H17.7216ZM84.3466 107.4C80.0799 107.4 76.2666 106.44 72.9066 104.52C69.5466 102.6 66.9066 99.96 64.9866 96.6C63.0666 93.24 62.1066 89.4267 62.1066 85.16C62.1066 80.84 63.0666 77 64.9866 73.64C66.9066 70.28 69.5466 67.64 72.9066 65.72C76.2666 63.8 80.0799 62.84 84.3466 62.84C88.6132 62.84 92.3999 63.8 95.7066 65.72C99.0666 67.64 101.707 70.28 103.627 73.64C105.547 77 106.533 80.84 106.587 85.16C106.587 89.4267 105.6 93.24 103.627 96.6C101.707 99.96 99.0666 102.6 95.7066 104.52C92.3999 106.44 88.6132 107.4 84.3466 107.4ZM84.3466 101.8C87.4399 101.8 90.2132 101.08 92.6666 99.64C95.1199 98.2 97.0399 96.2267 98.4266 93.72C99.8132 91.2133 100.507 88.36 100.507 85.16C100.507 81.96 99.8132 79.1067 98.4266 76.6C97.0399 74.04 95.1199 72.04 92.6666 70.6C90.2132 69.16 87.4399 68.44 84.3466 68.44C81.2532 68.44 78.4799 69.16 76.0266 70.6C73.5732 72.04 71.6266 74.04 70.1866 76.6C68.7999 79.1067 68.1066 81.96 68.1066 85.16C68.1066 88.36 68.7999 91.2133 70.1866 93.72C71.6266 96.2267 73.5732 98.2 76.0266 99.64C78.4799 101.08 81.2532 101.8 84.3466 101.8ZM138.487 107.4C134.221 107.4 130.407 106.44 127.047 104.52C123.687 102.6 121.047 99.96 119.127 96.6C117.207 93.24 116.247 89.4267 116.247 85.16C116.247 80.84 117.207 77 119.127 73.64C121.047 70.28 123.687 67.64 127.047 65.72C130.407 63.8 134.221 62.84 138.487 62.84C142.754 62.84 146.541 63.8 149.847 65.72C153.207 67.64 155.847 70.28 157.767 73.64C159.687 77 160.674 80.84 160.727 85.16C160.727 89.4267 159.741 93.24 157.767 96.6C155.847 99.96 153.207 102.6 149.847 104.52C146.541 106.44 142.754 107.4 138.487 107.4ZM138.487 101.8C141.581 101.8 144.354 101.08 146.807 99.64C149.261 98.2 151.181 96.2267 152.567 93.72C153.954 91.2133 154.647 88.36 154.647 85.16C154.647 81.96 153.954 79.1067 152.567 76.6C151.181 74.04 149.261 72.04 146.807 70.6C144.354 69.16 141.581 68.44 138.487 68.44C135.394 68.44 132.621 69.16 130.167 70.6C127.714 72.04 125.767 74.04 124.327 76.6C122.941 79.1067 122.247 81.96 122.247 85.16C122.247 88.36 122.941 91.2133 124.327 93.72C125.767 96.2267 127.714 98.2 130.167 99.64C132.621 101.08 135.394 101.8 138.487 101.8ZM175.748 107C174.841 107 174.094 106.733 173.508 106.2C172.974 105.613 172.708 104.867 172.708 103.96V47.56C172.708 46.6533 172.974 45.9333 173.508 45.4C174.094 44.8133 174.841 44.52 175.748 44.52C176.654 44.52 177.374 44.8133 177.908 45.4C178.494 45.9333 178.788 46.6533 178.788 47.56V83.96L201.348 63.56C202.734 62.3333 204.041 62.3867 205.268 63.72C205.854 64.36 206.121 65.0533 206.068 65.8C206.068 66.4933 205.748 67.1067 205.108 67.64L189.108 82.12L205.748 102.6C206.921 104.04 206.788 105.373 205.348 106.6C204.654 107.187 203.934 107.427 203.188 107.32C202.441 107.267 201.801 106.893 201.268 106.2L184.788 85.96L178.788 91.48V103.96C178.788 104.867 178.494 105.613 177.908 106.2C177.374 106.733 176.654 107 175.748 107ZM244.169 108.28C239.316 108.28 234.996 107.347 231.209 105.48C227.476 103.613 224.542 101.027 222.409 97.72C220.329 94.4133 219.289 90.6267 219.289 86.36V47.64C219.289 46.7333 219.582 45.9867 220.169 45.4C220.756 44.8133 221.502 44.52 222.409 44.52C223.316 44.52 224.062 44.8133 224.649 45.4C225.236 45.9867 225.529 46.7333 225.529 47.64V86.36C225.529 89.5067 226.302 92.28 227.849 94.68C229.449 97.08 231.662 98.9733 234.489 100.36C237.316 101.693 240.542 102.36 244.169 102.36C247.742 102.36 250.916 101.693 253.689 100.36C256.462 98.9733 258.622 97.08 260.169 94.68C261.769 92.28 262.569 89.5067 262.569 86.36V47.64C262.569 46.7333 262.862 45.9867 263.449 45.4C264.036 44.8133 264.782 44.52 265.689 44.52C266.649 44.52 267.396 44.8133 267.929 45.4C268.516 45.9867 268.809 46.7333 268.809 47.64V86.36C268.809 90.6267 267.742 94.4133 265.609 97.72C263.529 101.027 260.622 103.613 256.889 105.48C253.209 107.347 248.969 108.28 244.169 108.28ZM287.156 125.72C286.196 125.72 285.423 125.427 284.836 124.84C284.303 124.307 284.036 123.56 284.036 122.6V84.84C284.089 80.68 285.076 76.9467 286.996 73.64C288.969 70.28 291.609 67.64 294.916 65.72C298.276 63.8 302.036 62.84 306.196 62.84C310.463 62.84 314.276 63.8267 317.636 65.8C320.996 67.72 323.636 70.36 325.556 73.72C327.529 77.08 328.516 80.8933 328.516 85.16C328.516 89.3733 327.556 93.16 325.636 96.52C323.769 99.88 321.209 102.547 317.956 104.52C314.703 106.44 311.023 107.4 306.916 107.4C303.343 107.4 300.089 106.653 297.156 105.16C294.276 103.613 291.956 101.587 290.196 99.08V122.6C290.196 123.56 289.903 124.307 289.316 124.84C288.783 125.427 288.063 125.72 287.156 125.72ZM306.196 101.8C309.289 101.8 312.063 101.08 314.516 99.64C316.969 98.2 318.889 96.2267 320.276 93.72C321.716 91.16 322.436 88.3067 322.436 85.16C322.436 81.96 321.716 79.1067 320.276 76.6C318.889 74.0933 316.969 72.12 314.516 70.68C312.063 69.1867 309.289 68.44 306.196 68.44C303.156 68.44 300.409 69.1867 297.956 70.68C295.503 72.12 293.583 74.0933 292.196 76.6C290.809 79.1067 290.116 81.96 290.116 85.16C290.116 88.3067 290.809 91.16 292.196 93.72C293.583 96.2267 295.503 98.2 297.956 99.64C300.409 101.08 303.156 101.8 306.196 101.8Z" fill="black"/>
<path d="M352.153 37.2181L346.141 66.0866L322.685 38.2872L352.153 37.2181Z" fill="#6457A4"/>
<path d="M378.196 16.05L372.184 44.9184L348.728 17.1191L378.196 16.05Z" fill="#6457A4"/>
</svg>
